<svg xmlns="http://www.w3.org/2000/svg" width="66" height="64" fill="none" viewBox="0 0 66 64"><path stroke="#AC80A0" stroke-linecap="round" stroke-linejoin="round" stroke-width="2.007" d="M35.4115 6.53105L52.8348 15.7295C54.8688 16.8039 54.8688 19.8701 52.8348 20.9445L35.4115 30.1429C33.8592 30.9553 32.0392 30.9553 30.4869 30.1429L13.0636 20.9445C11.0296 19.8701 11.0296 16.8039 13.0636 15.7295L30.4869 6.53105C32.0392 5.71865 33.8592 5.71865 35.4115 6.53105ZM10.4943 27.1554L26.6864 35.0959C28.6937 36.0918 29.9784 38.1096 29.9784 40.311V55.301C29.9784 57.4761 27.6499 58.865 25.6694 57.8954L9.47726 49.9549C8.49065 49.4676 7.66095 48.7225 7.07996 47.8021C6.49896 46.8817 6.18933 45.8219 6.1853 44.7398V29.7498C6.1853 27.5747 8.51376 26.1858 10.4943 27.1554ZM55.4041 27.1554L39.2119 35.0959C37.2047 36.0918 35.92 38.1096 35.92 40.311V55.301C35.92 57.4761 38.2484 58.865 40.229 57.8954L56.4211 49.9549C58.4284 48.9591 59.7131 46.9412 59.7131 44.7398V29.7498C59.7131 27.5747 57.3846 26.1858 55.4041 27.1554Z"/></svg>