<svg xmlns="http://www.w3.org/2000/svg" width="71" height="66" fill="none" viewBox="0 0 71 66"><path stroke="#AC80A0" stroke-linecap="round" stroke-linejoin="round" stroke-width="2.007" d="M63.6342 28.7674L60.7928 40.1878C58.3573 50.0508 53.5443 54.0398 44.4981 53.2201C43.0483 53.1108 41.4827 52.8649 39.801 52.4824L34.93 51.3896C22.8394 48.6847 19.0991 43.0565 21.9406 31.6361L24.782 20.1885C25.3619 17.8661 26.0577 15.8443 26.9276 14.1777C30.3199 7.56593 36.0897 5.79004 45.7738 7.94843L50.6158 9.01397C62.7644 11.6915 66.4757 17.347 63.6342 28.7674Z"/><path stroke="#AC80A0" stroke-linecap="round" stroke-linejoin="round" stroke-width="2.007" d="M37.481 23.5489L51.5432 26.9094M34.6396 34.1223L43.0479 36.1441M44.4976 53.22C42.7 54.3675 40.4385 55.3237 37.684 56.1707L33.1029 57.5914C21.5922 61.0886 15.5324 58.1652 11.7922 47.3186L8.08092 36.5266C4.36966 25.68 7.44304 19.9424 18.9537 16.4453L23.5348 15.0246C24.7236 14.6694 25.8544 14.3689 26.9272 14.1776C26.0573 15.8442 25.3615 17.866 24.7816 20.1883L21.9401 31.636C19.0987 43.0564 22.839 48.6846 34.9296 51.3895L39.8006 52.4823C41.4822 52.8648 43.0479 53.1107 44.4976 53.22Z"/></svg>