<svg xmlns="http://www.w3.org/2000/svg" width="62" height="56" fill="none" viewBox="0 0 62 56"><path stroke="#AC80A0" stroke-linecap="round" stroke-linejoin="round" stroke-width="2.007" d="M30.9417 50.8991C44.7996 50.8991 56.0329 40.6643 56.0329 28.0383C56.0329 15.4123 44.7996 5.17749 30.9417 5.17749C17.0839 5.17749 5.85059 15.4123 5.85059 28.0383C5.85059 40.6643 17.0839 50.8991 30.9417 50.8991Z"/><path stroke="#AC80A0" stroke-linecap="round" stroke-linejoin="round" stroke-width="2.007" d="M20.9053 7.46375H23.4144C18.5217 20.818 18.5217 35.2589 23.4144 48.6132H20.9053M38.4691 7.46375C43.3618 20.818 43.3618 35.2589 38.4691 48.6132"/><path stroke="#AC80A0" stroke-linecap="round" stroke-linejoin="round" stroke-width="2.007" d="M8.35986 37.1827V34.8966C23.017 39.3544 38.8668 39.3544 53.5239 34.8966V37.1827M8.35986 21.1801C23.017 16.7223 38.8668 16.7223 53.5239 21.1801"/></svg>